<svg width="36" height="36" viewBox="0 0 36 36" fill="none" xmlns="http://www.w3.org/2000/svg">
<g id="fi_6662570" clip-path="url(#clip0_791_24547)">
<g id="Group">
<path id="Vector" d="M21.8866 10.2365L19.0547 13.0159V4.98466C20.7139 3.53355 22.8045 2.65281 25.0476 2.49707L21.8866 10.2365ZM14.1134 10.2365L16.9453 13.0159V4.98466C15.2861 3.53355 13.1955 2.65281 10.9524 2.49707L14.1134 10.2365ZM24.0455 10.5296L27.8405 13.7682H35.9374C35.9788 13.4097 36 13.0551 36 12.7047C36 7.57968 32.2129 3.32282 27.2902 2.58482L24.0455 10.5296ZM27.9316 15.8775L24.3569 19.9811L29.2811 24.9054C32.4933 21.7034 34.563 18.6833 35.47 15.8775H27.9316ZM22.9681 21.5753L19.0547 26.0676V33.0549C20.3127 32.2447 23.7208 29.9619 27.1741 26.8866C27.371 26.7112 27.5644 26.5364 27.7548 26.362L22.9681 21.5753ZM8.15688 13.7682L11.9545 10.5294L8.70975 2.58475C3.7871 3.32282 0 7.57968 0 12.7047C0 13.0551 0.0212344 13.4097 0.0626484 13.7682H8.15688ZM16.9453 26.0869L13.0261 21.5811L8.2452 26.362C8.4356 26.5364 8.62896 26.7111 8.82591 26.8865C12.2792 29.9618 15.6873 32.2445 16.9453 33.0548V26.0869ZM8.06505 15.8775H0.529945C1.43698 18.6833 3.50663 21.7035 6.71878 24.9054L11.6384 19.9858L8.06505 15.8775Z" fill="url(#paint0_linear_791_24547)"/>
</g>
</g>
<defs>
<linearGradient id="paint0_linear_791_24547" x1="4.26301e-07" y1="7.95379" x2="36.4092" y2="8.37894" gradientUnits="userSpaceOnUse">
<stop stop-color="#6E68ED"/>
<stop offset="1" stop-color="#B138F6"/>
</linearGradient>
<clipPath id="clip0_791_24547">
<rect width="36" height="36" fill="white"/>
</clipPath>
</defs>
</svg>
