<svg width="36" height="36" viewBox="0 0 36 36" fill="none" xmlns="http://www.w3.org/2000/svg">
<g id="fi_6662579" clip-path="url(#clip0_791_24608)">
<g id="Group">
<g id="Group_2">
<path id="Vector" d="M0.221979 11.9671L17.1673 33.764C17.5895 34.3072 18.4103 34.3072 18.8326 33.764L35.778 11.9671C36.0579 11.6071 36.0747 11.1078 35.8194 10.7298L30.1241 2.29228C29.928 2.00174 29.6004 1.82765 29.2499 1.82765L6.74993 1.82765C6.39942 1.82765 6.07184 2.00175 5.87573 2.29228L0.180422 10.7298C-0.0747396 11.1079 -0.0580083 11.6071 0.221979 11.9671Z" fill="white"/>
</g>
<path id="Vector_2" d="M9.91476 11.3203L26.0849 11.3203C26.0849 11.4294 26.0688 11.5387 26.0348 11.6441L19.0036 33.441C18.863 33.8766 18.4576 34.1719 17.9999 34.1719C17.5421 34.1719 17.1366 33.8766 16.9961 33.441L9.96482 11.6441C9.93079 11.5387 9.91476 11.4294 9.91476 11.3203ZM9.91476 11.3203C9.91476 11.1905 9.93789 11.0609 9.98564 10.938L13.2671 2.50052L13.5285 1.82813L6.74999 1.82813C6.39949 1.82813 6.0719 2.00222 5.8758 2.29275L0.180487 10.7303C0.0598277 10.909 0.000696074 11.1149 0.000768571 11.3203L9.91476 11.3203ZM36 11.3203C36 11.1149 35.9409 10.909 35.8203 10.7302L30.125 2.29275C29.9289 2.00222 29.6013 1.82813 29.2508 1.82813L22.4722 1.82813L22.7337 2.50052L26.0151 10.938C26.0629 11.0608 26.086 11.1904 26.086 11.3203L36 11.3203Z" fill="url(#paint0_linear_791_24608)"/>
</g>
</g>
<defs>
<linearGradient id="paint0_linear_791_24608" x1="36" y1="28.3962" x2="-0.408965" y2="27.9946" gradientUnits="userSpaceOnUse">
<stop stop-color="#6E68ED"/>
<stop offset="1" stop-color="#B138F6"/>
</linearGradient>
<clipPath id="clip0_791_24608">
<rect width="36" height="36" fill="white" transform="translate(36 36) rotate(180)"/>
</clipPath>
</defs>
</svg>
