<svg width="120" height="125" viewBox="0 0 120 125" fill="none" xmlns="http://www.w3.org/2000/svg">
<path d="M104.86 46.3347C106.972 46.3347 108.684 44.6209 108.684 42.5067C108.684 40.3926 106.972 38.6787 104.86 38.6787C102.747 38.6787 101.035 40.3926 101.035 42.5067C101.035 44.6209 102.747 46.3347 104.86 46.3347Z" fill="#668EE7"/>
<path d="M3.26618 67.0359C4.65582 67.0359 5.78235 65.9083 5.78235 64.5175C5.78235 63.1266 4.65582 61.999 3.26618 61.999C1.87653 61.999 0.75 63.1266 0.75 64.5175C0.75 65.9083 1.87653 67.0359 3.26618 67.0359Z" fill="#668EE7"/>
<path d="M14.8326 112.312C16.2222 112.312 17.3488 111.185 17.3488 109.794C17.3488 108.403 16.2222 107.275 14.8326 107.275C13.4429 107.275 12.3164 108.403 12.3164 109.794C12.3164 111.185 13.4429 112.312 14.8326 112.312Z" fill="#668EE7"/>
<path d="M28.2822 112.312L63.5912 101.248V55.8867L28.2822 66.8654V112.312Z" fill="#B8CBF4" stroke="#184EC7" stroke-width="2" stroke-miterlimit="10" stroke-linejoin="round"/>
<path d="M98.9003 112.312L63.5913 101.248V55.8867L98.9003 66.8654V112.312Z" fill="#B8CBF4" stroke="#184EC7" stroke-width="2" stroke-miterlimit="10" stroke-linejoin="round"/>
<path d="M63.5912 123.461L28.2822 112.397V67.0352L63.5912 78.099V123.461Z" fill="#B8CBF4" stroke="#184EC7" stroke-width="2" stroke-miterlimit="10" stroke-linejoin="round"/>
<path d="M63.5913 123.461L98.9003 112.397V67.0352L63.5913 78.099V123.461Z" fill="#B8CBF4" stroke="#184EC7" stroke-width="2" stroke-miterlimit="10" stroke-linejoin="round"/>
<path d="M63.5913 55.8865L46.9902 43.4609L11.0913 55.546L28.2823 66.8652L63.5913 55.8865Z" fill="#E8EEFB" stroke="#184EC7" stroke-width="2" stroke-miterlimit="10" stroke-linejoin="round"/>
<path d="M63.5913 55.8865L80.1924 43.4609L116.091 55.546L98.9003 66.8652L63.5913 55.8865Z" fill="#E8EEFB" stroke="#184EC7" stroke-width="2" stroke-miterlimit="10" stroke-linejoin="round"/>
<path d="M28.2823 67.0352L63.5913 78.099L45.979 89.333L11.0913 77.7586L28.2823 67.0352Z" fill="#E8EEFB" stroke="#184EC7" stroke-width="2" stroke-miterlimit="10" stroke-linejoin="round"/>
<path d="M98.9003 67.0352L63.5913 78.099L81.2037 89.333L116.091 77.7586L98.9003 67.0352Z" fill="#E8EEFB" stroke="#184EC7" stroke-width="2" stroke-miterlimit="10" stroke-linejoin="round"/>
<path d="M73.4428 12.3384C78.3894 25.7629 79.8638 28.7457 80.3477 41.9736C80.1616 44.9931 80.0462 48.2765 78.6227 50.9204C76.7215 54.9648 72.0715 57.7658 67.6782 57.8112C63.1522 57.892 58.7151 55.1209 56.718 50.8478C55.3129 48.2545 55.3576 44.7072 57.285 42.3527C59.3803 40.0945 63.0665 39.5315 65.7182 40.9424C68.6351 42.2824 70.3761 45.0686 71.021 48.0069C71.6658 50.9452 71.3825 54.1322 70.5954 57.0298C68.9491 64.0773 67.5856 64.4182 63.5483 76.35" stroke="#184EC7" stroke-width="2" stroke-miterlimit="10" stroke-dasharray="4 4"/>
<path d="M79.4632 5.23203C79.4517 7.206 77.6148 8.41469 75.2852 7.7844C72.8325 7.36629 71.0965 6.93537 70.9848 5.17357C71.041 3.36678 73.0123 2.65963 75.3197 1.86248C78.0863 0.763158 79.3067 3.30305 79.4632 5.23203Z" fill="#F1F3F9" stroke="#184EC7" stroke-width="2" stroke-miterlimit="10" stroke-linejoin="round"/>
<path d="M63.6139 11.2689C64.857 12.5485 67.4777 12.9216 68.7548 10.967C70.1551 8.80026 71.3538 7.22502 70.066 5.7782C68.8229 4.49857 67.6132 5.36009 64.8466 6.45941C62.6289 7.59092 62.1581 9.86706 63.6139 11.2689Z" fill="#F1F3F9" stroke="#184EC7" stroke-width="2" stroke-miterlimit="10" stroke-linejoin="round"/>
<path d="M69.3496 3.1038C70.4809 2.62163 71.836 2.97537 72.4407 3.88846C72.6983 4.17782 73.0006 4.63436 73.0902 4.96872C74.053 7.21925 73.7503 9.4504 72.451 9.97756C71.0285 10.7169 69.0687 9.45008 68.3186 7.32173C68.1395 6.65301 68.0499 6.31865 67.9156 5.81711C67.7702 4.60185 68.2183 3.58596 69.3496 3.1038C69.5176 3.0588 69.3496 3.1038 69.3496 3.1038Z" fill="#F1F3F9"/>
<path d="M69.3496 3.1038C70.4809 2.62163 71.836 2.97537 72.4407 3.88846C72.6983 4.17782 73.0006 4.63436 73.0902 4.96872C74.053 7.21925 73.7503 9.4504 72.451 9.97756C71.0285 10.7169 69.0687 9.45008 68.3186 7.32173C68.1395 6.65301 68.0499 6.31865 67.9156 5.81711C67.7702 4.60185 68.2183 3.58596 69.3496 3.1038ZM69.3496 3.1038C69.3496 3.1038 69.5176 3.0588 69.3496 3.1038Z" stroke="#184EC7" stroke-width="2" stroke-miterlimit="10" stroke-linejoin="round"/>
<path d="M17.3486 39.3316H15.1585V37.1416H13.2814V39.3316H11.0913V41.2714H13.2814V43.4614H15.1585V41.2714H17.3486V39.3316Z" fill="#123D9B"/>
<path d="M22.1594 94.2789H19.9693V92.0889H18.0921V94.2789H15.9021V96.2187H18.0921V98.4087H19.9693V96.2187H22.1594V94.2789Z" fill="#123D9B"/>
<path d="M117.897 94.4023L115.218 93.0494L116.571 90.3699L114.274 89.2103L112.921 91.8898L110.241 90.537L109.043 92.9103L111.723 94.2632L110.37 96.9427L112.667 98.1023L114.019 95.4228L116.699 96.7756L117.897 94.4023Z" fill="#123D9B"/>
</svg>
