<svg width="121" height="19" viewBox="0 0 121 19" fill="none" xmlns="http://www.w3.org/2000/svg">
<g id="DesignMonks">
<mask id="path-1-outside-1_778_70583" maskUnits="userSpaceOnUse" x="-0.117676" y="-0.735352" width="121" height="20" fill="black">
<rect fill="white" x="-0.117676" y="-0.735352" width="121" height="20"/>
<path d="M5.64703 13.7647C9.5499 13.7647 12 11.3903 12 7.41171C12 3.37756 9.62354 0.264648 5.64703 0.264648H0.882324V13.7647H5.64703ZM5.64703 2.647C8.4269 2.647 9.61762 4.54339 9.61762 7.41171C9.61762 10.2245 8.33485 12.1764 5.64703 12.1764H3.26468V2.647H5.64703Z"/>
<path d="M18.3529 14.5588C20.7278 14.5588 21.9369 13.3809 22.3235 11.3823H20.7353C20.4775 12.252 19.5864 12.1764 18.3529 12.1764C16.8617 12.1764 16.1362 11.404 15.9706 9.79406H22.3235V8.99994C22.3235 6.15013 21.0776 4.23524 18.3529 4.23524C15.6835 4.23524 13.5882 6.92574 13.5882 9.79406C13.5882 12.6254 15.6467 14.5588 18.3529 14.5588ZM18.3529 6.61759C19.6968 6.61759 20.7353 6.94747 20.7353 8.20583H15.9706C16.1915 6.83644 17.0274 6.61759 18.3529 6.61759Z"/>
<path d="M23.9117 11.3823C23.9117 13.1773 24.8238 14.5588 27.0882 14.5588C29.3342 14.5588 31.0588 13.2328 31.0588 11.3823C31.0588 9.9759 30.2045 9.35154 28.6764 8.99994L27.0882 8.20583C26.315 8.02077 26.2941 7.92986 26.2941 7.41171C26.2941 6.72701 26.9987 6.61759 27.8823 6.61759C28.7476 6.61759 28.658 6.63449 28.6764 7.41171H31.0588C31.0404 5.6352 29.9258 4.23524 27.8823 4.23524C25.7836 4.23524 23.9117 5.6167 23.9117 7.41171C23.9117 8.87362 24.6556 9.42396 26.2941 9.79406L27.8823 10.5882C28.6924 10.7732 29.4706 10.9197 29.4706 11.3823C29.4706 12.0485 28.9317 12.1764 27.8823 12.1764C26.8514 12.1764 25.5184 12.178 25.5 11.3823H23.9117Z"/>
<path d="M34.2353 3.44112C34.9717 3.44112 35.0294 2.6116 35.0294 1.85288C35.0294 1.09417 34.9717 0.264648 34.2353 0.264648C33.4621 0.264648 32.647 1.09417 32.647 1.85288C32.647 2.6116 33.4621 3.44112 34.2353 3.44112ZM32.647 13.7647H35.0294V5.02936H32.647V13.7647Z"/>
<path d="M36.6176 8.99994C36.6176 11.6462 38.805 13.7647 41.3823 13.7647C42.6894 13.7647 43.9881 13.0277 44.5588 12.1764V13.7647C44.5588 15.2821 42.9287 16.147 41.3823 16.147C40.0016 16.147 39.1473 15.7431 39 14.5588H37.4117C37.6879 17.0015 38.7681 18.5294 41.3823 18.5294C44.3279 18.5294 46.147 16.818 46.147 13.7647V5.02936H44.5588V5.82347C44.0249 4.84269 42.7446 4.23524 41.3823 4.23524C38.7866 4.23524 36.6176 6.33518 36.6176 8.99994ZM39 8.99994C39 7.50102 39.8911 6.61759 41.3823 6.61759C42.9472 6.61759 44.5588 7.4455 44.5588 8.99994C44.5588 10.5914 42.9287 12.1764 41.3823 12.1764C39.9095 12.1764 39 10.5359 39 8.99994Z"/>
<path d="M50.9117 13.7647V8.99994C50.9117 7.51952 51.9134 6.61759 53.2941 6.61759C54.4539 6.61759 54.8823 7.46401 54.8823 8.99994V13.7647H57.2647V8.20583C57.2647 5.83715 56.371 4.23524 54.0882 4.23524C52.8548 4.23524 51.4824 4.89821 50.9117 5.82347V5.02936H48.5294V13.7647H50.9117Z"/>
<path d="M67.5882 13.7647V8.99994C67.5882 7.31596 67.7171 5.84359 67.5882 5.02936L70.7647 13.7647H73.147L76.3235 5.02936C76.1946 5.99163 76.3235 7.07379 76.3235 9.79406V13.7647H78.7059V0.264648H76.3235L72.3529 11.3823L67.5882 0.264648H65.2059V13.7647H67.5882Z"/>
<path d="M81.0882 9.79406C81.0882 12.6439 83.0362 14.5588 85.8529 14.5588C88.6696 14.5588 90.6176 12.6439 90.6176 9.79406C90.6176 6.94425 88.6696 4.23524 85.8529 4.23524C83.0362 4.23524 81.0882 6.94425 81.0882 9.79406ZM83.4706 9.79406C83.4706 8.12859 84.3065 6.61759 85.8529 6.61759C87.3993 6.61759 88.2353 8.12859 88.2353 9.79406C88.2353 11.4595 87.3993 12.1764 85.8529 12.1764C84.3065 12.1764 83.4706 11.4595 83.4706 9.79406Z"/>
<path d="M94.5882 13.7647V8.99994C94.5882 7.51952 95.5898 6.61759 96.9706 6.61759C98.1304 6.61759 98.5588 7.46401 98.5588 8.99994V13.7647H100.941V8.20583C100.941 5.83715 100.047 4.23524 97.7647 4.23524C96.5312 4.23524 95.1589 4.89821 94.5882 5.82347V5.02936H92.2059V13.7647H94.5882Z"/>
<path d="M105.706 13.7647V11.3823L106.5 9.79406L108.882 13.7647H112.059L108.088 8.20583L112.059 5.02936H108.882L105.706 8.99994V0.264648H103.324V13.7647H105.706Z"/>
<path d="M112.853 11.3823C112.853 13.1773 113.765 14.5588 116.029 14.5588C118.275 14.5588 120 13.2328 120 11.3823C120 9.9759 119.146 9.35154 117.618 8.99994L116.029 8.20583C115.256 8.02077 115.235 7.92986 115.235 7.41171C115.235 6.72701 115.146 6.61759 116.029 6.61759C116.895 6.61759 117.599 6.63449 117.618 7.41171H120C119.982 5.6352 118.073 4.23524 116.029 4.23524C113.931 4.23524 112.853 5.6167 112.853 7.41171C112.853 8.87362 113.597 9.42396 115.235 9.79406L116.824 10.5882C117.634 10.7732 117.618 10.9197 117.618 11.3823C117.618 12.0485 117.079 12.1764 116.029 12.1764C114.998 12.1764 114.46 12.178 114.441 11.3823H112.853Z"/>
</mask>
<path d="M5.64703 13.7647C9.5499 13.7647 12 11.3903 12 7.41171C12 3.37756 9.62354 0.264648 5.64703 0.264648H0.882324V13.7647H5.64703ZM5.64703 2.647C8.4269 2.647 9.61762 4.54339 9.61762 7.41171C9.61762 10.2245 8.33485 12.1764 5.64703 12.1764H3.26468V2.647H5.64703Z" fill="#101828"/>
<path d="M18.3529 14.5588C20.7278 14.5588 21.9369 13.3809 22.3235 11.3823H20.7353C20.4775 12.252 19.5864 12.1764 18.3529 12.1764C16.8617 12.1764 16.1362 11.404 15.9706 9.79406H22.3235V8.99994C22.3235 6.15013 21.0776 4.23524 18.3529 4.23524C15.6835 4.23524 13.5882 6.92574 13.5882 9.79406C13.5882 12.6254 15.6467 14.5588 18.3529 14.5588ZM18.3529 6.61759C19.6968 6.61759 20.7353 6.94747 20.7353 8.20583H15.9706C16.1915 6.83644 17.0274 6.61759 18.3529 6.61759Z" fill="#101828"/>
<path d="M23.9117 11.3823C23.9117 13.1773 24.8238 14.5588 27.0882 14.5588C29.3342 14.5588 31.0588 13.2328 31.0588 11.3823C31.0588 9.9759 30.2045 9.35154 28.6764 8.99994L27.0882 8.20583C26.315 8.02077 26.2941 7.92986 26.2941 7.41171C26.2941 6.72701 26.9987 6.61759 27.8823 6.61759C28.7476 6.61759 28.658 6.63449 28.6764 7.41171H31.0588C31.0404 5.6352 29.9258 4.23524 27.8823 4.23524C25.7836 4.23524 23.9117 5.6167 23.9117 7.41171C23.9117 8.87362 24.6556 9.42396 26.2941 9.79406L27.8823 10.5882C28.6924 10.7732 29.4706 10.9197 29.4706 11.3823C29.4706 12.0485 28.9317 12.1764 27.8823 12.1764C26.8514 12.1764 25.5184 12.178 25.5 11.3823H23.9117Z" fill="#101828"/>
<path d="M34.2353 3.44112C34.9717 3.44112 35.0294 2.6116 35.0294 1.85288C35.0294 1.09417 34.9717 0.264648 34.2353 0.264648C33.4621 0.264648 32.647 1.09417 32.647 1.85288C32.647 2.6116 33.4621 3.44112 34.2353 3.44112ZM32.647 13.7647H35.0294V5.02936H32.647V13.7647Z" fill="#101828"/>
<path d="M36.6176 8.99994C36.6176 11.6462 38.805 13.7647 41.3823 13.7647C42.6894 13.7647 43.9881 13.0277 44.5588 12.1764V13.7647C44.5588 15.2821 42.9287 16.147 41.3823 16.147C40.0016 16.147 39.1473 15.7431 39 14.5588H37.4117C37.6879 17.0015 38.7681 18.5294 41.3823 18.5294C44.3279 18.5294 46.147 16.818 46.147 13.7647V5.02936H44.5588V5.82347C44.0249 4.84269 42.7446 4.23524 41.3823 4.23524C38.7866 4.23524 36.6176 6.33518 36.6176 8.99994ZM39 8.99994C39 7.50102 39.8911 6.61759 41.3823 6.61759C42.9472 6.61759 44.5588 7.4455 44.5588 8.99994C44.5588 10.5914 42.9287 12.1764 41.3823 12.1764C39.9095 12.1764 39 10.5359 39 8.99994Z" fill="#101828"/>
<path d="M50.9117 13.7647V8.99994C50.9117 7.51952 51.9134 6.61759 53.2941 6.61759C54.4539 6.61759 54.8823 7.46401 54.8823 8.99994V13.7647H57.2647V8.20583C57.2647 5.83715 56.371 4.23524 54.0882 4.23524C52.8548 4.23524 51.4824 4.89821 50.9117 5.82347V5.02936H48.5294V13.7647H50.9117Z" fill="#101828"/>
<path d="M67.5882 13.7647V8.99994C67.5882 7.31596 67.7171 5.84359 67.5882 5.02936L70.7647 13.7647H73.147L76.3235 5.02936C76.1946 5.99163 76.3235 7.07379 76.3235 9.79406V13.7647H78.7059V0.264648H76.3235L72.3529 11.3823L67.5882 0.264648H65.2059V13.7647H67.5882Z" fill="#101828"/>
<path d="M81.0882 9.79406C81.0882 12.6439 83.0362 14.5588 85.8529 14.5588C88.6696 14.5588 90.6176 12.6439 90.6176 9.79406C90.6176 6.94425 88.6696 4.23524 85.8529 4.23524C83.0362 4.23524 81.0882 6.94425 81.0882 9.79406ZM83.4706 9.79406C83.4706 8.12859 84.3065 6.61759 85.8529 6.61759C87.3993 6.61759 88.2353 8.12859 88.2353 9.79406C88.2353 11.4595 87.3993 12.1764 85.8529 12.1764C84.3065 12.1764 83.4706 11.4595 83.4706 9.79406Z" fill="#101828"/>
<path d="M94.5882 13.7647V8.99994C94.5882 7.51952 95.5898 6.61759 96.9706 6.61759C98.1304 6.61759 98.5588 7.46401 98.5588 8.99994V13.7647H100.941V8.20583C100.941 5.83715 100.047 4.23524 97.7647 4.23524C96.5312 4.23524 95.1589 4.89821 94.5882 5.82347V5.02936H92.2059V13.7647H94.5882Z" fill="#101828"/>
<path d="M105.706 13.7647V11.3823L106.5 9.79406L108.882 13.7647H112.059L108.088 8.20583L112.059 5.02936H108.882L105.706 8.99994V0.264648H103.324V13.7647H105.706Z" fill="#101828"/>
<path d="M112.853 11.3823C112.853 13.1773 113.765 14.5588 116.029 14.5588C118.275 14.5588 120 13.2328 120 11.3823C120 9.9759 119.146 9.35154 117.618 8.99994L116.029 8.20583C115.256 8.02077 115.235 7.92986 115.235 7.41171C115.235 6.72701 115.146 6.61759 116.029 6.61759C116.895 6.61759 117.599 6.63449 117.618 7.41171H120C119.982 5.6352 118.073 4.23524 116.029 4.23524C113.931 4.23524 112.853 5.6167 112.853 7.41171C112.853 8.87362 113.597 9.42396 115.235 9.79406L116.824 10.5882C117.634 10.7732 117.618 10.9197 117.618 11.3823C117.618 12.0485 117.079 12.1764 116.029 12.1764C114.998 12.1764 114.46 12.178 114.441 11.3823H112.853Z" fill="#101828"/>
<path d="M5.64703 13.7647C9.5499 13.7647 12 11.3903 12 7.41171C12 3.37756 9.62354 0.264648 5.64703 0.264648H0.882324V13.7647H5.64703ZM5.64703 2.647C8.4269 2.647 9.61762 4.54339 9.61762 7.41171C9.61762 10.2245 8.33485 12.1764 5.64703 12.1764H3.26468V2.647H5.64703Z" stroke="#101828" stroke-width="0.4" mask="url(#path-1-outside-1_778_70583)"/>
<path d="M18.3529 14.5588C20.7278 14.5588 21.9369 13.3809 22.3235 11.3823H20.7353C20.4775 12.252 19.5864 12.1764 18.3529 12.1764C16.8617 12.1764 16.1362 11.404 15.9706 9.79406H22.3235V8.99994C22.3235 6.15013 21.0776 4.23524 18.3529 4.23524C15.6835 4.23524 13.5882 6.92574 13.5882 9.79406C13.5882 12.6254 15.6467 14.5588 18.3529 14.5588ZM18.3529 6.61759C19.6968 6.61759 20.7353 6.94747 20.7353 8.20583H15.9706C16.1915 6.83644 17.0274 6.61759 18.3529 6.61759Z" stroke="#101828" stroke-width="0.4" mask="url(#path-1-outside-1_778_70583)"/>
<path d="M23.9117 11.3823C23.9117 13.1773 24.8238 14.5588 27.0882 14.5588C29.3342 14.5588 31.0588 13.2328 31.0588 11.3823C31.0588 9.9759 30.2045 9.35154 28.6764 8.99994L27.0882 8.20583C26.315 8.02077 26.2941 7.92986 26.2941 7.41171C26.2941 6.72701 26.9987 6.61759 27.8823 6.61759C28.7476 6.61759 28.658 6.63449 28.6764 7.41171H31.0588C31.0404 5.6352 29.9258 4.23524 27.8823 4.23524C25.7836 4.23524 23.9117 5.6167 23.9117 7.41171C23.9117 8.87362 24.6556 9.42396 26.2941 9.79406L27.8823 10.5882C28.6924 10.7732 29.4706 10.9197 29.4706 11.3823C29.4706 12.0485 28.9317 12.1764 27.8823 12.1764C26.8514 12.1764 25.5184 12.178 25.5 11.3823H23.9117Z" stroke="#101828" stroke-width="0.4" mask="url(#path-1-outside-1_778_70583)"/>
<path d="M34.2353 3.44112C34.9717 3.44112 35.0294 2.6116 35.0294 1.85288C35.0294 1.09417 34.9717 0.264648 34.2353 0.264648C33.4621 0.264648 32.647 1.09417 32.647 1.85288C32.647 2.6116 33.4621 3.44112 34.2353 3.44112ZM32.647 13.7647H35.0294V5.02936H32.647V13.7647Z" stroke="#101828" stroke-width="0.4" mask="url(#path-1-outside-1_778_70583)"/>
<path d="M36.6176 8.99994C36.6176 11.6462 38.805 13.7647 41.3823 13.7647C42.6894 13.7647 43.9881 13.0277 44.5588 12.1764V13.7647C44.5588 15.2821 42.9287 16.147 41.3823 16.147C40.0016 16.147 39.1473 15.7431 39 14.5588H37.4117C37.6879 17.0015 38.7681 18.5294 41.3823 18.5294C44.3279 18.5294 46.147 16.818 46.147 13.7647V5.02936H44.5588V5.82347C44.0249 4.84269 42.7446 4.23524 41.3823 4.23524C38.7866 4.23524 36.6176 6.33518 36.6176 8.99994ZM39 8.99994C39 7.50102 39.8911 6.61759 41.3823 6.61759C42.9472 6.61759 44.5588 7.4455 44.5588 8.99994C44.5588 10.5914 42.9287 12.1764 41.3823 12.1764C39.9095 12.1764 39 10.5359 39 8.99994Z" stroke="#101828" stroke-width="0.4" mask="url(#path-1-outside-1_778_70583)"/>
<path d="M50.9117 13.7647V8.99994C50.9117 7.51952 51.9134 6.61759 53.2941 6.61759C54.4539 6.61759 54.8823 7.46401 54.8823 8.99994V13.7647H57.2647V8.20583C57.2647 5.83715 56.371 4.23524 54.0882 4.23524C52.8548 4.23524 51.4824 4.89821 50.9117 5.82347V5.02936H48.5294V13.7647H50.9117Z" stroke="#101828" stroke-width="0.4" mask="url(#path-1-outside-1_778_70583)"/>
<path d="M67.5882 13.7647V8.99994C67.5882 7.31596 67.7171 5.84359 67.5882 5.02936L70.7647 13.7647H73.147L76.3235 5.02936C76.1946 5.99163 76.3235 7.07379 76.3235 9.79406V13.7647H78.7059V0.264648H76.3235L72.3529 11.3823L67.5882 0.264648H65.2059V13.7647H67.5882Z" stroke="#101828" stroke-width="0.4" mask="url(#path-1-outside-1_778_70583)"/>
<path d="M81.0882 9.79406C81.0882 12.6439 83.0362 14.5588 85.8529 14.5588C88.6696 14.5588 90.6176 12.6439 90.6176 9.79406C90.6176 6.94425 88.6696 4.23524 85.8529 4.23524C83.0362 4.23524 81.0882 6.94425 81.0882 9.79406ZM83.4706 9.79406C83.4706 8.12859 84.3065 6.61759 85.8529 6.61759C87.3993 6.61759 88.2353 8.12859 88.2353 9.79406C88.2353 11.4595 87.3993 12.1764 85.8529 12.1764C84.3065 12.1764 83.4706 11.4595 83.4706 9.79406Z" stroke="#101828" stroke-width="0.4" mask="url(#path-1-outside-1_778_70583)"/>
<path d="M94.5882 13.7647V8.99994C94.5882 7.51952 95.5898 6.61759 96.9706 6.61759C98.1304 6.61759 98.5588 7.46401 98.5588 8.99994V13.7647H100.941V8.20583C100.941 5.83715 100.047 4.23524 97.7647 4.23524C96.5312 4.23524 95.1589 4.89821 94.5882 5.82347V5.02936H92.2059V13.7647H94.5882Z" stroke="#101828" stroke-width="0.4" mask="url(#path-1-outside-1_778_70583)"/>
<path d="M105.706 13.7647V11.3823L106.5 9.79406L108.882 13.7647H112.059L108.088 8.20583L112.059 5.02936H108.882L105.706 8.99994V0.264648H103.324V13.7647H105.706Z" stroke="#101828" stroke-width="0.4" mask="url(#path-1-outside-1_778_70583)"/>
<path d="M112.853 11.3823C112.853 13.1773 113.765 14.5588 116.029 14.5588C118.275 14.5588 120 13.2328 120 11.3823C120 9.9759 119.146 9.35154 117.618 8.99994L116.029 8.20583C115.256 8.02077 115.235 7.92986 115.235 7.41171C115.235 6.72701 115.146 6.61759 116.029 6.61759C116.895 6.61759 117.599 6.63449 117.618 7.41171H120C119.982 5.6352 118.073 4.23524 116.029 4.23524C113.931 4.23524 112.853 5.6167 112.853 7.41171C112.853 8.87362 113.597 9.42396 115.235 9.79406L116.824 10.5882C117.634 10.7732 117.618 10.9197 117.618 11.3823C117.618 12.0485 117.079 12.1764 116.029 12.1764C114.998 12.1764 114.46 12.178 114.441 11.3823H112.853Z" stroke="#101828" stroke-width="0.4" mask="url(#path-1-outside-1_778_70583)"/>
</g>
</svg>
