<svg width="127" height="126" viewBox="0 0 127 126" fill="none" xmlns="http://www.w3.org/2000/svg">
<g clip-path="url(#clip0_664_36674)">
<path d="M123.841 37.796C118.339 23.7962 101.391 15.4008 87.0364 20.9566C70.6509 27.2984 76.0837 53.3605 61.2007 58.6306C53.1611 61.4774 41.2765 50.8432 33.1536 49.2123C18.186 46.2075 4.63605 56.7686 1.29951 71.3937C-2.10445 86.3144 3.35513 106.243 19.7484 110.293C39.276 115.117 49.4478 97.5626 65.8292 92.5221C82.6399 87.3495 101.331 99.5658 115.248 84.7022C125.53 73.7215 129.289 51.659 123.841 37.796Z" fill="url(#paint0_linear_664_36674)"/>
<path opacity="0.1" d="M117.682 43.9495C117.682 34.2295 109.803 26.3496 100.083 26.3496C92.5521 26.3496 86.1293 31.0808 83.6164 37.7314H19.9746C17.2563 37.7314 15.0527 39.935 15.0527 42.6533V97.1409C15.0527 99.8593 17.2563 102.063 19.9746 102.063H106.692C109.41 102.063 111.614 99.8593 111.614 97.1409V57.2393C115.33 54.0123 117.682 49.2572 117.682 43.9495Z" fill="#184EC7"/>
<path d="M106.692 95.9114H19.9746C17.2563 95.9114 15.0527 93.7079 15.0527 90.9896V36.502C15.0527 33.7836 17.2563 31.5801 19.9746 31.5801H106.692C109.41 31.5801 111.614 33.7836 111.614 36.502V90.9896C111.614 93.7079 109.41 95.9114 106.692 95.9114Z" fill="white"/>
<path d="M64.8326 55.0543L111.614 90.9902C111.614 93.7085 109.41 95.9121 106.692 95.9121H19.9746C17.2563 95.9121 15.0527 93.7085 15.0527 90.9902L61.8342 55.0543C62.7184 54.3751 63.9484 54.3751 64.8326 55.0543Z" fill="white"/>
<path d="M61.8342 72.438L15.0527 36.502C15.0527 33.7836 17.2563 31.5801 19.9746 31.5801H106.692C109.41 31.5801 111.614 33.7836 111.614 36.502L64.8326 72.438C63.9484 73.117 62.7184 73.117 61.8342 72.438Z" fill="white"/>
<path d="M91.6211 89.3621H83.7131C83.0334 89.3621 82.4827 88.8114 82.4827 88.1316V82.6797C82.4827 82.0002 83.0334 81.4492 83.7131 81.4492H91.6211C92.3008 81.4492 92.8516 82.0002 92.8516 82.6797V88.1316C92.8516 88.8114 92.3008 89.3621 91.6211 89.3621Z" fill="#668EE7"/>
<path d="M77.0829 84.3457H70.2334C69.5537 84.3457 69.0029 83.7947 69.0029 83.1152C69.0029 82.4358 69.5537 81.8848 70.2334 81.8848H77.0829C77.7626 81.8848 78.3134 82.4358 78.3134 83.1152C78.3134 83.7947 77.7626 84.3457 77.0829 84.3457Z" fill="#184EC7"/>
<path d="M77.0829 89.3613H53.0068C52.3271 89.3613 51.7764 88.8103 51.7764 88.1309C51.7764 87.4514 52.3271 86.9004 53.0068 86.9004H77.0829C77.7626 86.9004 78.3134 87.4514 78.3134 88.1309C78.3134 88.8106 77.7626 89.3613 77.0829 89.3613Z" fill="#184EC7"/>
<path d="M117.432 40.6163C118.987 31.0226 112.471 21.9845 102.877 20.4293C93.283 18.8741 84.245 25.3906 82.6898 34.9844C81.1345 44.5782 87.6511 53.6162 97.2449 55.1715C106.839 56.7267 115.877 50.2101 117.432 40.6163Z" fill="#668EE7"/>
<path d="M100.083 56.6295C110.465 56.6295 118.913 48.1823 118.913 37.7991C118.913 27.4159 110.466 18.9688 100.083 18.9688C89.6994 18.9688 81.2522 27.4159 81.2522 37.7991C81.2522 43.8392 84.114 49.2203 88.5496 52.6683L64.083 71.463C63.6422 71.8021 63.0255 71.8024 62.5838 71.463L16.3275 35.9305C16.6034 34.166 18.1341 32.8115 19.9746 32.8115H76.4202C77.0999 32.8115 77.6506 32.2605 77.6506 31.5811C77.6506 30.9016 77.0999 30.3506 76.4202 30.3506H19.9746C16.5822 30.3506 13.8223 33.1105 13.8223 36.5029V90.9905C13.8223 94.3829 16.5822 97.1429 19.9746 97.1429H106.692C110.084 97.1429 112.844 94.3829 112.844 90.9905V58.4717C112.844 57.7923 112.293 57.2412 111.614 57.2412C110.934 57.2412 110.383 57.7923 110.383 58.4717V88.4937L78.1679 63.7467L90.7039 54.1171C93.4676 55.7118 96.669 56.6295 100.083 56.6295ZM48.4988 63.7467L16.2832 88.4937V38.9998L48.4988 63.7467ZM110.335 91.5598C110.06 93.3252 108.533 94.682 106.692 94.682H19.9746C18.1331 94.682 16.6068 93.3252 16.3317 91.5598L50.5188 65.2984L61.0846 73.4145C61.7466 73.923 62.54 74.1774 63.3334 74.1774C64.1268 74.1774 64.9199 73.9232 65.5822 73.4145L76.148 65.2981L110.335 91.5598ZM83.7131 37.7991C83.7131 28.7731 91.0563 21.4297 100.083 21.4297C109.109 21.4297 116.452 28.7729 116.452 37.7991C116.452 46.8251 109.109 54.1685 100.083 54.1685C91.0563 54.1685 83.7131 46.8251 83.7131 37.7991Z" fill="#184EC7"/>
<path d="M92.4005 31.797L94.9121 37.799L92.4005 43.8009C91.974 44.8203 93.0029 45.8415 94.019 45.4074L109.183 38.9305C110.179 38.505 110.179 37.0929 109.183 36.6674L94.019 30.1905C93.0029 29.7564 91.974 30.7777 92.4005 31.797Z" fill="white"/>
<path d="M81.7482 20.0981C80.8342 20.0981 79.9204 19.7503 79.225 19.0546C77.8335 17.6632 77.8335 15.3994 79.225 14.0082C80.6156 12.6173 82.8799 12.6168 84.2711 14.0082C85.6625 15.3996 85.6625 17.6635 84.2711 19.0546C83.5756 19.7503 82.6619 20.0981 81.7482 20.0981ZM81.7482 15.4245C81.4647 15.4245 81.1809 15.5323 80.9648 15.7483C80.5332 16.18 80.5332 16.8826 80.9648 17.3145C81.397 17.7461 82.0988 17.7464 82.531 17.3145C82.9626 16.8828 82.9626 16.1802 82.531 15.7483C82.3152 15.5325 82.0314 15.4245 81.7482 15.4245Z" fill="#668EE7"/>
<path d="M54.1144 113.034C53.2006 113.034 52.2866 112.686 51.5912 111.99C50.1998 110.599 50.1998 108.335 51.5912 106.944C52.9821 105.553 55.2466 105.553 56.6376 106.944C58.029 108.335 58.029 110.599 56.6376 111.99C55.9421 112.686 55.0281 113.034 54.1144 113.034ZM54.1144 108.36C53.8309 108.36 53.5471 108.468 53.331 108.684C52.8994 109.116 52.8994 109.818 53.331 110.25C53.7632 110.682 54.4653 110.682 54.8974 110.25C55.3291 109.818 55.3291 109.116 54.8974 108.684C54.6816 108.468 54.3979 108.36 54.1144 108.36Z" fill="#668EE7"/>
<path d="M72.8769 23.2673C72.5621 23.2673 72.2469 23.1472 72.0069 22.9071L70.539 21.4393L69.0711 22.9071C68.5909 23.3874 67.8113 23.3874 67.3312 22.9071C66.8505 22.4264 66.8505 21.6473 67.3312 21.1669L69.6691 18.829C70.1492 18.3487 70.9288 18.3487 71.4089 18.829L73.7468 21.1669C74.2275 21.6475 74.2275 22.4267 73.7468 22.9071C73.5069 23.147 73.1919 23.2673 72.8769 23.2673Z" fill="#668EE7"/>
<path d="M108.552 108.359C108.237 108.359 107.922 108.239 107.682 107.999L106.214 106.531L104.746 107.999C104.266 108.479 103.487 108.479 103.006 107.999C102.526 107.518 102.526 106.739 103.006 106.259L105.344 103.921C105.824 103.44 106.604 103.44 107.084 103.921L109.422 106.259C109.903 106.739 109.903 107.518 109.422 107.999C109.182 108.239 108.867 108.359 108.552 108.359Z" fill="#668EE7"/>
<path d="M44.3557 109.529C44.0409 109.529 43.7257 109.409 43.4857 109.169L42.0178 107.701L40.5498 109.169C40.0697 109.649 39.2901 109.649 38.8099 109.169C38.3293 108.688 38.3293 107.909 38.8099 107.429L41.1478 105.091C41.6279 104.61 42.4076 104.61 42.8877 105.091L45.2256 107.429C45.7062 107.909 45.7062 108.688 45.2256 109.169C44.9854 109.409 44.6704 109.529 44.3557 109.529Z" fill="#668EE7"/>
</g>
<defs>
<linearGradient id="paint0_linear_664_36674" x1="106.728" y1="123.698" x2="49.1421" y2="47.4092" gradientUnits="userSpaceOnUse">
<stop stop-color="#D2DEFF" stop-opacity="0"/>
<stop offset="1" stop-color="#B7C5FF"/>
</linearGradient>
<clipPath id="clip0_664_36674">
<rect width="126" height="126" fill="white" transform="translate(0.333252)"/>
</clipPath>
</defs>
</svg>
