<svg width="28" height="28" viewBox="0 0 28 28" fill="none" xmlns="http://www.w3.org/2000/svg">
<path d="M8.92531 24.395C8.89031 24.395 8.84365 24.4183 8.80865 24.4183C6.54531 23.2983 4.70198 21.4433 3.57031 19.18C3.57031 19.145 3.59365 19.0983 3.59365 19.0633C5.01698 19.4833 6.48698 19.7983 7.94531 20.0433C8.20198 21.5133 8.50531 22.9717 8.92531 24.395Z" fill="#184EC7"/>
<path d="M24.4289 19.1917C23.2739 21.5133 21.3489 23.3917 19.0039 24.5233C19.4472 23.0417 19.8206 21.5483 20.0656 20.0433C21.5356 19.7983 22.9822 19.4833 24.4056 19.0633C24.3939 19.11 24.4289 19.1567 24.4289 19.1917Z" fill="#184EC7"/>
<path d="M24.5222 8.99499C23.0522 8.55165 21.5706 8.18999 20.0656 7.93332C19.8206 6.42832 19.4589 4.93499 19.0039 3.47665C21.4189 4.63165 23.3672 6.57999 24.5222 8.99499Z" fill="#184EC7"/>
<path d="M8.9249 3.60501C8.5049 5.02834 8.20156 6.47501 7.95656 7.94501C6.45156 8.17834 4.95823 8.55167 3.47656 8.99501C4.60823 6.65001 6.48656 4.72501 8.80823 3.57001C8.84323 3.57001 8.8899 3.60501 8.9249 3.60501Z" fill="#184EC7"/>
<path d="M18.073 7.68834C15.3664 7.38501 12.6364 7.38501 9.92969 7.68834C10.2214 6.09001 10.5947 4.49168 11.1197 2.95168C11.143 2.85834 11.1314 2.78834 11.143 2.69501C12.0647 2.47334 13.0097 2.33334 14.0014 2.33334C14.9814 2.33334 15.938 2.47334 16.848 2.69501C16.8597 2.78834 16.8597 2.85834 16.883 2.95168C17.408 4.50334 17.7814 6.09001 18.073 7.68834Z" fill="#184EC7"/>
<path d="M7.68703 18.0717C6.07703 17.78 4.49036 17.4067 2.95036 16.8817C2.85703 16.8583 2.78703 16.87 2.6937 16.8583C2.47203 15.9367 2.33203 14.9917 2.33203 14C2.33203 13.02 2.47203 12.0633 2.6937 11.1533C2.78703 11.1417 2.85703 11.1417 2.95036 11.1183C4.50203 10.605 6.07703 10.22 7.68703 9.92834C7.39536 12.635 7.39536 15.365 7.68703 18.0717Z" fill="#184EC7"/>
<path d="M25.6675 14C25.6675 14.9917 25.5275 15.9367 25.3058 16.8583C25.2125 16.87 25.1425 16.8583 25.0492 16.8817C23.4975 17.395 21.9108 17.78 20.3125 18.0717C20.6158 15.365 20.6158 12.635 20.3125 9.92834C21.9108 10.22 23.5092 10.5933 25.0492 11.1183C25.1425 11.1417 25.2125 11.1533 25.3058 11.1533C25.5275 12.075 25.6675 13.02 25.6675 14Z" fill="#184EC7"/>
<path d="M18.073 20.3117C17.7814 21.9217 17.408 23.5083 16.883 25.0483C16.8597 25.1417 16.8597 25.2117 16.848 25.305C15.938 25.5267 14.9814 25.6667 14.0014 25.6667C13.0097 25.6667 12.0647 25.5267 11.143 25.305C11.1314 25.2117 11.143 25.1417 11.1197 25.0483C10.6064 23.4967 10.2214 21.9217 9.92969 20.3117C11.283 20.4633 12.6364 20.5683 14.0014 20.5683C15.3664 20.5683 16.7314 20.4633 18.073 20.3117Z" fill="#184EC7"/>
<path d="M18.3892 18.3906C15.4713 18.7587 12.5261 18.7587 9.60815 18.3906C9.23999 15.4726 9.23999 12.5274 9.60815 9.60946C12.5261 9.24131 15.4713 9.24131 18.3892 9.60946C18.7574 12.5274 18.7574 15.4726 18.3892 18.3906Z" fill="#184EC7"/>
</svg>
