<svg width="1318" height="982" viewBox="0 0 1318 982" fill="none" xmlns="http://www.w3.org/2000/svg">
<g opacity="0.3">
<mask id="path-1-inside-1_973_29853" fill="white">
<path d="M221.509 249.87C175.595 306.638 141.504 372.02 121.243 442.165C100.983 512.31 94.9637 585.8 103.539 658.307C112.114 730.813 135.111 800.871 171.175 864.355C207.239 927.839 255.642 983.464 313.532 1027.96C371.422 1072.45 437.629 1104.91 508.255 1123.42C578.881 1141.93 652.498 1146.13 724.77 1135.76C797.041 1125.39 866.507 1100.66 929.077 1063.03C991.646 1025.4 1046.05 975.635 1089.1 916.658L647.029 594.029L221.509 249.87Z"/>
</mask>
<path d="M221.509 249.87C175.595 306.638 141.504 372.02 121.243 442.165C100.983 512.31 94.9637 585.8 103.539 658.307C112.114 730.813 135.111 800.871 171.175 864.355C207.239 927.839 255.642 983.464 313.532 1027.96C371.422 1072.45 437.629 1104.91 508.255 1123.42C578.881 1141.93 652.498 1146.13 724.77 1135.76C797.041 1125.39 866.507 1100.66 929.077 1063.03C991.646 1025.4 1046.05 975.635 1089.1 916.658L647.029 594.029L221.509 249.87Z" stroke="#1A56DB" stroke-width="6" mask="url(#path-1-inside-1_973_29853)"/>
</g>
<path d="M539.561 123.572C537.369 115.012 528.643 109.824 520.158 112.292C442.987 134.732 372.346 175.631 314.397 231.547C252.606 291.172 207.366 365.826 183.109 448.196C158.852 530.565 156.411 617.824 176.025 701.421C195.638 785.017 236.634 862.085 294.995 925.07C353.355 988.056 427.078 1034.8 508.939 1060.72C590.801 1086.64 677.992 1090.85 761.969 1072.93C845.946 1055.01 923.827 1015.59 987.982 958.514C1048.15 904.989 1094.3 837.667 1122.55 762.427C1125.66 754.154 1121.15 745.06 1112.78 742.222L884.54 664.833C876.171 661.995 867.14 666.507 863.709 674.651C850.861 705.145 831.347 732.457 806.523 754.54C777.707 780.176 742.725 797.885 705.004 805.933C667.284 813.98 628.12 812.09 591.35 800.448C554.58 788.805 521.466 767.809 495.252 739.518C469.038 711.226 450.623 676.61 441.813 639.06C433.003 601.511 434.1 562.317 444.996 525.318C455.891 488.32 476.212 454.787 503.967 428.006C527.875 404.936 556.594 387.557 587.977 377.067C596.358 374.266 601.544 365.605 599.352 357.044L539.561 123.572Z" fill="#4878E2"/>
</svg>
