<svg width="36" height="34" viewBox="0 0 36 34" fill="none" xmlns="http://www.w3.org/2000/svg">
<path d="M0.221979 10.9671L17.1673 32.764C17.5895 33.3072 18.4103 33.3072 18.8326 32.764L35.778 10.9671C36.0579 10.6071 36.0747 10.1078 35.8194 9.72978L30.1241 1.29228C29.928 1.00174 29.6004 0.827653 29.2499 0.827653L6.74993 0.827655C6.39942 0.827655 6.07184 1.00175 5.87573 1.29228L0.180422 9.72978C-0.0747396 10.1079 -0.0580083 10.6071 0.221979 10.9671Z" fill="white"/>
<path d="M9.91476 10.3203L26.0849 10.3203C26.0849 10.4294 26.0688 10.5387 26.0348 10.6441L19.0036 32.441C18.863 32.8766 18.4576 33.1719 17.9999 33.1719C17.5421 33.1719 17.1366 32.8766 16.9961 32.441L9.96482 10.6441C9.93079 10.5387 9.91476 10.4294 9.91476 10.3203ZM9.91476 10.3203C9.91476 10.1905 9.93789 10.0609 9.98564 9.93802L13.2671 1.50052L13.5285 0.828127L6.74999 0.828128C6.39949 0.828128 6.0719 1.00222 5.8758 1.29275L0.180487 9.73025C0.0598277 9.90899 0.000696074 10.1149 0.000768571 10.3203L9.91476 10.3203ZM36 10.3203C36 10.1149 35.9409 9.90899 35.8203 9.73025L30.125 1.29275C29.9289 1.00222 29.6013 0.828126 29.2508 0.828126L22.4722 0.828126L22.7337 1.50052L26.0151 9.93802C26.0629 10.0608 26.086 10.1904 26.086 10.3203L36 10.3203Z" fill="url(#paint0_linear_791_24609)"/>
<defs>
<linearGradient id="paint0_linear_791_24609" x1="36" y1="27.3962" x2="-0.408965" y2="26.9946" gradientUnits="userSpaceOnUse">
<stop stop-color="#6E68ED"/>
<stop offset="1" stop-color="#B138F6"/>
</linearGradient>
</defs>
</svg>
