<svg width="36" height="36" viewBox="0 0 36 36" fill="none" xmlns="http://www.w3.org/2000/svg">
<path d="M33.2504 16.9452L19.0544 0.653809L17.9997 3.0585L16.945 0.653809L2.74902 16.9452L4.85312 17.9999L2.74902 19.0546L16.945 35.346L17.9997 32.9413L19.0544 35.346L33.2504 19.0546L31.1463 17.9999L33.2504 16.9452Z" fill="url(#paint0_linear_791_24579)"/>
<path d="M33.5672 18.696L33.2507 19.0547H24.8344L19.0547 25.657V35.3461L18.8016 35.6413C18.5907 35.8734 18.2953 36 18 36C17.7047 36 17.4093 35.8734 17.1985 35.6413L16.9453 35.3461V25.657L11.1656 19.0547H2.74924L2.43276 18.696C2.09533 18.2954 2.09533 17.7047 2.43276 17.3039L2.74931 16.9453H11.1657L16.9454 10.343V0.653906L17.1985 0.358594C17.5993 -0.105398 18.4009 -0.105398 18.8017 0.358594L19.0548 0.653906V10.343L24.8345 16.9453H33.2509L33.5673 17.3038C33.9046 17.7047 33.9046 18.2953 33.5672 18.696ZM32.7656 2.10938H31.711V1.05469C31.711 0.471727 31.2392 0 30.6563 0C30.0733 0 29.6016 0.471727 29.6016 1.05469V2.10938H28.5469C27.9639 2.10938 27.4922 2.5811 27.4922 3.16406C27.4922 3.74702 27.9639 4.21875 28.5469 4.21875H29.6016V5.27344C29.6016 5.8564 30.0733 6.32812 30.6563 6.32812C31.2392 6.32812 31.711 5.8564 31.711 5.27344V4.21875H32.7656C33.3486 4.21875 33.8203 3.74702 33.8203 3.16406C33.8203 2.5811 33.3486 2.10938 32.7656 2.10938ZM7.45314 31.7812H6.39846V30.7266C6.39846 30.1436 5.92673 29.6719 5.34377 29.6719C4.76081 29.6719 4.28908 30.1436 4.28908 30.7266V31.7812H3.23439C2.65143 31.7812 2.17971 32.253 2.17971 32.8359C2.17971 33.4189 2.65143 33.8906 3.23439 33.8906H4.28908V34.9453C4.28908 35.5283 4.76081 36 5.34377 36C5.92673 36 6.39846 35.5283 6.39846 34.9453V33.8906H7.45314C8.0361 33.8906 8.50783 33.4189 8.50783 32.8359C8.50783 32.253 8.0361 31.7812 7.45314 31.7812Z" fill="white"/>
<defs>
<linearGradient id="paint0_linear_791_24579" x1="2.74902" y1="6.8488" x2="33.599" y2="7.11764" gradientUnits="userSpaceOnUse">
<stop stop-color="#6E68ED"/>
<stop offset="1" stop-color="#B138F6"/>
</linearGradient>
</defs>
</svg>
